Coordinates
version=1
nRows=14
nColumns=33
inDegrees=yes

Units are S.I. units (second, meters, Newtons, ...)
Angles are in degrees.

endheader
time	ground_thorax_rot_x	ground_thorax_rot_y	ground_thorax_rot_z	ground_thorax_tx	ground_thorax_ty	ground_thorax_tz	clav_prot_r	clav_elev_r	scapula_abduction_r	scapula_elevation_r	scapula_upward_rot_r	scapula_winging_r	shoulder_elv_r	plane_of_elev_r	axial_rot_r	elbow_flexion_r	pro_sup_r	wrist_flex_r	wrist_dev_r	clav_prot_l	clav_elev_l	scapula_abduction_l	scapula_elevation_l	scapula_upward_rot_l	scapula_winging_l	shoulder_elv_l	plane_of_elev_l	axial_rot_l	elbow_flexion_l	pro_sup_l	wrist_flex_l	wrist_dev_l
      2.79000000	     38.21545963	      2.96775250	     14.68541359	   -230.92397804	    865.03687675	     -8.09092677	     12.35816144	     36.51060741	     33.34908142	     45.00000000	    -45.00000000	   4234.39178346	  -2093.18081610	     30.90435629	     72.14181247	   1456.43354577	   -288.46528859	     17.06282406	      4.92916028	     12.28273564	    -45.00000000	    -34.95594047	     45.00000000	    -45.00000000	  -1698.72984292	  -1895.41202854	    145.60186766	    135.37982904	   1811.96579487	   -316.66575464	      7.87778190	    -21.81421959
      2.80000000	     38.34659428	      2.80758111	     14.20852577	   -231.96178238	    866.84381786	     -8.07819692	     13.29905642	     36.65670838	     33.73093003	     45.00000000	    -45.00000000	   4234.16637741	  -2093.22895825	     30.89606223	     71.24417917	   1456.23932395	   -292.21771231	     17.34493172	      5.68297841	     11.68520996	    -45.00000000	    -35.19245080	     45.00000000	    -45.00000000	  -1698.30993043	  -1895.49184173	    145.25051582	    135.13893349	   1811.58607008	   -318.00931468	      7.21285177	    -23.25682363
      2.81000000	     38.28127151	      3.00139972	     14.19822274	   -232.73858971	    868.48195582	     -8.06612748	     12.87829695	     36.48995352	     33.49708908	     45.00000000	    -45.00000000	   4234.23170495	  -2093.03243205	     30.90476832	     71.17527042	   1455.96846591	   -295.71551549	     17.47355135	      5.45731613	     11.97420392	    -45.00000000	    -35.00640682	     45.00000000	    -45.00000000	  -1698.32553078	  -1895.22299167	    145.56238412	    135.37796262	   1811.67520359	   -319.29921563	      7.85579979	    -22.41558377
      2.82000000	     38.28386897	      3.05703362	     13.99795687	   -233.25299372	    869.93809714	     -8.04328654	     12.90106681	     36.55171668	     33.50456934	     45.00000000	    -45.00000000	   4234.19761803	  -2092.98643400	     30.98913726	     71.95762594	   1453.85033004	   -318.72127500	     18.40396953	      6.95381025	     12.21786677	    -45.00000000	    -35.26157697	     45.00000000	    -45.00000000	  -1698.16703262	  -1895.21312907	    145.73696468	    134.36334733	   1810.71617137	   -328.99221883	      8.94748223	    -22.52277320
      2.83000000	     38.40100096	      2.92869125	     13.62626190	   -233.51828120	    871.23737517	     -7.99593100	     13.02374542	     36.50739990	     33.69777980	     45.00000000	    -45.00000000	   4234.07982442	  -2093.01647389	     31.03633679	     71.52479480	   1453.79184860	   -318.77656323	     18.34055140	      6.81515168	     12.01055818	    -45.00000000	    -35.16437857	     45.00000000	    -45.00000000	  -1698.12417378	  -1895.21341485	    145.54423547	    134.90436609	   1810.68719767	   -328.95884223	      9.13681069	    -22.41918842
      2.84000000	     38.44208066	      2.85501127	     13.39414131	   -233.53957960	    872.37539510	     -7.91470644	     13.02116938	     36.51573151	     33.74048184	     45.00000000	    -45.00000000	   4233.99629557	  -2092.95048656	     31.26269214	     71.28756034	   1453.83712432	   -318.79093045	     18.30154332	      6.78911219	     12.20367549	    -45.00000000	    -35.34557307	     45.00000000	    -45.00000000	  -1697.97583758	  -1895.22470325	    145.49550030	    135.05933885	   1810.70553369	   -329.02850964	      9.03179750	    -22.52962300
      2.85000000	     38.40133248	      3.08735001	     13.42952773	   -233.32920515	    873.36641213	     -7.79491663	     12.90291062	     36.42983940	     33.50664970	     45.00000000	    -45.00000000	   4234.14278957	  -2092.58579910	     31.26760650	     71.10169613	   1453.97610812	   -318.79853874	     18.36687691	      6.71319559	     12.26129661	    -45.00000000	    -35.57902312	     45.00000000	    -45.00000000	  -1697.87870351	  -1895.10965057	    145.63652952	    135.27110061	   1810.89438237	   -329.11489395	      9.11026222	    -22.43845371
      2.86000000	     38.43627023	      3.09121193	     13.10655868	   -232.90282549	    874.21475842	     -7.63965535	     12.73898609	     36.39510027	     33.47144408	     45.00000000	    -45.00000000	   4234.05559996	  -2092.61791494	     31.48067195	     70.77857351	   1453.94867894	   -318.79561755	     18.26241647	      6.70316623	     12.54479089	    -45.00000000	    -35.76681630	     45.00000000	    -45.00000000	  -1697.81036199	  -1895.08178379	    145.36171355	    135.38120541	   1810.75488493	   -329.20498762	      8.94275116	    -22.55509751
      2.87000000	     38.45051528	      3.22727497	     13.09813657	   -232.27697936	    874.93386076	     -7.45697388	     12.59761429	     36.27350172	     33.66493887	     45.00000000	    -45.00000000	   4234.20249582	  -2092.49620077	     31.15683765	     70.50760448	   1453.96455302	   -318.78193173	     18.35297469	      6.72269323	     12.61617961	    -45.00000000	    -35.78237231	     45.00000000	    -45.00000000	  -1697.88340761	  -1894.97854436	    145.39492505	    135.46200761	   1810.68578047	   -329.21503762	      9.07576569	    -22.41926285
      2.88000000	     38.48653481	      3.21232876	     13.00419597	   -231.46803256	    875.53634187	     -7.25854027	     12.61141737	     36.31542343	     33.85131419	     45.00000000	    -45.00000000	   4234.08994264	  -2092.44174627	     31.24536268	     70.25165468	   1454.10610204	   -318.79057799	     18.36042074	      6.69025989	     12.67479526	    -45.00000000	    -35.81803100	     45.00000000	    -45.00000000	  -1697.83632983	  -1894.87980102	    145.32218169	    135.64873874	   1810.81419627	   -329.24031434	      8.92506745	    -22.46748817
      2.89000000	     38.49365229	      3.33153896	     12.88719158	   -230.49366043	    876.03611385	     -7.05740848	     12.54442371	     36.27573570	     33.84255530	     45.00000000	    -45.00000000	   4234.12828227	  -2092.33613119	     31.26282390	     69.97654510	   1454.13084178	   -318.79039717	     18.35398121	      6.65242077	     12.77423801	    -45.00000000	    -35.99823193	     45.00000000	    -45.00000000	  -1697.86559565	  -1894.79376718	    145.19771856	    135.82457051	   1810.80669576	   -329.17473879	      8.88716354	    -22.44376528
      2.90000000	     38.48198522	      3.69392622	     13.08839641	   -229.37074643	    876.45162305	     -6.86509424	     12.33364494	     36.25844205	     33.62123797	     45.00000000	    -45.00000000	   4234.27010319	  -2092.06236984	     31.20995705	     69.58444400	   1454.08167958	   -318.79070675	     18.30239975	      6.57414386	     12.92866185	    -45.00000000	    -36.41522869	     45.00000000	    -45.00000000	  -1697.81728942	  -1894.97401393	    145.30706678	    135.97753711	   1810.74749322	   -329.05967135	      8.81646494	    -22.42459118
      2.91000000	     38.61958353	      3.20204182	     12.70784750	   -228.11336162	    876.80520846	     -6.69006162	     12.72110437	     36.33266430	     34.27964509	     45.00000000	    -45.00000000	   4233.99134100	  -2092.30374691	     31.49408154	     69.52554798	   1454.18193853	   -318.73980480	     18.37570752	      6.61700879	     12.73421043	    -45.00000000	    -35.94663227	     45.00000000	    -45.00000000	  -1697.99963472	  -1894.62513272	    145.06520106	    136.16610689	   1811.03540151	   -328.88071656	      8.70545010	    -22.47816537
      2.92000000	     38.60556193	      3.54706993	     12.77508679	   -226.74353523	    877.11886006	     -6.53956687	     12.36840422	     36.21671399	     34.13860569	     45.00000000	    -45.00000000	   4234.19641995	  -2092.05958900	     31.28171159	     69.17637259	   1454.23539174	   -318.67725071	     18.36362738	      6.52071580	     12.88671605	    -45.00000000	    -36.37083980	     45.00000000	    -45.00000000	  -1697.97043035	  -1894.65565855	    144.98681410	    136.26057017	   1811.01005968	   -328.61775748	      8.65990374	    -22.49362236
